<svg id="Layer_1" data-name="Layer 1" xmlns="http://www.w3.org/2000/svg" viewBox="0 0 200 55.92"><defs><style>.cls-1{fill:#53584c;}.cls-2{fill:#f37021;}</style></defs><title>TazopiaLogo200xAI</title><path class="cls-1" d="M423.85,372.15v17.93c0,3.4,1,3.63,3.92,3.63h4.56v4.44h-5.07c-6.11,0-9.17-.4-9.17-7.5V372.15h-6.34v-4.27h6.34V359c1-.35,3.46-1.21,5.77-2v10.9h8.71v4.27h-8.71Z" transform="translate(-411.75 -354.91)"/><path class="cls-1" d="M457.29,383.86c-2.48-.06-4.27-0.17-5.13-0.17-6.05,0-9.74.92-9.74,5.36,0,5.08,4.61,5.59,9.22,5.59,1.56,0,2.71-.12,5.65-0.29V383.86Zm-7.55,14.93c-7.84,0-13.32-1.73-13.32-9.92,0-9.4,9.57-9.45,15.91-9.45,1.33,0,2.88.17,4.9,0.17,0-6.4-.29-8-8.71-8a59.59,59.59,0,0,0-10,1.21v-4.5a53.18,53.18,0,0,1,10.67-1.1c8.42,0,13.84,1.15,13.84,10V398.1a111.85,111.85,0,0,1-13.26.69" transform="translate(-411.75 -354.91)"/><path class="cls-1" d="M469.63,398.16v-4.9c2.82-3.06,10.84-11.59,19.31-20.93-3.69.06-13.49,0.12-18.28,0.17v-4.61h24v6.05c-1.5,1.67-3.57,4-18.33,19.83,6.11-.12,11.47-0.17,18.33-0.29v4.67H469.63Z" transform="translate(-411.75 -354.91)"/><path class="cls-1" d="M548.21,371.81a41.31,41.31,0,0,0-4.61.23v22.08a33.05,33.05,0,0,0,5.48.4c5.65,0,10.2-3,10.2-11.65,0-7.84-4.21-11.07-11.07-11.07m11,24.56a18.17,18.17,0,0,1-9.74,2.65,41.37,41.37,0,0,1-5.88-.46v12.28h-5.77v-43c3.34-.17,7.26-0.46,9.92-0.46,4.38,0,8.07.4,11.3,2.31,5,3,6.4,8.48,6.4,13.2,0,5.59-2,10.84-6.23,13.49" transform="translate(-411.75 -354.91)"/><path class="cls-1" d="M572.83,367.89h5.77v30.27h-5.77V367.89Zm0-13h5.77v5.59h-5.77v-5.59Z" transform="translate(-411.75 -354.91)"/><path class="cls-1" d="M606,383.86c-2.48-.06-4.27-0.17-5.13-0.17-6.05,0-9.74.92-9.74,5.36,0,5.08,4.61,5.59,9.23,5.59,1.56,0,2.71-.12,5.65-0.29V383.86Zm-7.55,14.93c-7.84,0-13.32-1.73-13.32-9.92,0-9.4,9.57-9.45,15.91-9.45,1.33,0,2.88.17,4.9,0.17,0-6.4-.29-8-8.71-8a59.59,59.59,0,0,0-10,1.21v-4.5a53.19,53.19,0,0,1,10.67-1.1c8.42,0,13.84,1.15,13.84,10V398.1a111.86,111.86,0,0,1-13.26.69" transform="translate(-411.75 -354.91)"/><path class="cls-2" d="M516,367c-8.1,0-13,3.46-14.55,10a16.13,16.13,0,0,1,1.56-2.09,14.64,14.64,0,0,1,20.44-1.41,12.8,12.8,0,0,1,1.3,18.25,12.08,12.08,0,0,1-16.83,1.17,10.57,10.57,0,0,1-1.08-15.06,10,10,0,0,1,13.92-1,8.75,8.75,0,0,1,.89,12.48,8.29,8.29,0,0,1-11.55.8,7.28,7.28,0,0,1-.74-10.38,6.91,6.91,0,0,1,9.64-.67,1,1,0,0,1,.1,1.46,1.06,1.06,0,0,1-1.48.1,4.79,4.79,0,0,0-6.68.46,5.24,5.24,0,0,0,.53,7.47,6.17,6.17,0,0,0,8.6-.59,6.71,6.71,0,0,0-.68-9.57,7.85,7.85,0,0,0-11,.76,8.53,8.53,0,0,0,.87,12.15,10,10,0,0,0,13.88-1A10.76,10.76,0,0,0,522,375a12.53,12.53,0,0,0-17.48,1.21,13.48,13.48,0,0,0-3.32,10.24c1.49,7.75,7.2,12.64,16.21,12.64,9.48,0,13.69-8.86,13.69-17.06,0-9.24-5.84-15-15.17-15" transform="translate(-411.75 -354.91)"/></svg>